<mxfile host="app.diagrams.net" modified="2023-10-25T21:29:52.030Z" agent="Mozilla/5.0 (Windows NT 10.0; Win64; x64) AppleWebKit/537.36 (KHTML, like Gecko) Chrome/118.0.0.0 Safari/537.36" etag="8GVV9IRxC32HPjfB7VMI" version="22.0.8" type="github">
  <diagram name="第 1 页" id="6fL6iG80BFAZWoQlDoeK">
    <mxGraphModel dx="525" dy="291" grid="1" gridSize="10" guides="1" tooltips="1" connect="1" arrows="1" fold="1" page="1" pageScale="1" pageWidth="827" pageHeight="1169" math="0" shadow="0">
      <root>
        <mxCell id="0" />
        <mxCell id="1" parent="0" />
        <mxCell id="eBgWkfiUlUs-1mOhxA75-1" value="s" style="ellipse;whiteSpace=wrap;html=1;aspect=fixed;" vertex="1" parent="1">
          <mxGeometry x="300" y="230" width="30" height="30" as="geometry" />
        </mxCell>
        <mxCell id="eBgWkfiUlUs-1mOhxA75-12" style="rounded=0;orthogonalLoop=1;jettySize=auto;html=1;exitX=0.371;exitY=0.957;exitDx=0;exitDy=0;entryX=0.371;entryY=0;entryDx=0;entryDy=0;exitPerimeter=0;entryPerimeter=0;" edge="1" parent="1" source="eBgWkfiUlUs-1mOhxA75-2" target="eBgWkfiUlUs-1mOhxA75-4">
          <mxGeometry relative="1" as="geometry" />
        </mxCell>
        <mxCell id="eBgWkfiUlUs-1mOhxA75-2" value="a" style="ellipse;whiteSpace=wrap;html=1;aspect=fixed;" vertex="1" parent="1">
          <mxGeometry x="370" y="180" width="30" height="30" as="geometry" />
        </mxCell>
        <mxCell id="eBgWkfiUlUs-1mOhxA75-26" style="rounded=0;orthogonalLoop=1;jettySize=auto;html=1;exitX=0.5;exitY=1;exitDx=0;exitDy=0;entryX=0.5;entryY=0;entryDx=0;entryDy=0;" edge="1" parent="1" source="eBgWkfiUlUs-1mOhxA75-3" target="eBgWkfiUlUs-1mOhxA75-5">
          <mxGeometry relative="1" as="geometry" />
        </mxCell>
        <mxCell id="eBgWkfiUlUs-1mOhxA75-28" style="rounded=0;orthogonalLoop=1;jettySize=auto;html=1;exitX=0;exitY=0.5;exitDx=0;exitDy=0;entryX=1;entryY=0.5;entryDx=0;entryDy=0;" edge="1" parent="1" source="eBgWkfiUlUs-1mOhxA75-3" target="eBgWkfiUlUs-1mOhxA75-2">
          <mxGeometry relative="1" as="geometry" />
        </mxCell>
        <mxCell id="eBgWkfiUlUs-1mOhxA75-36" style="rounded=0;orthogonalLoop=1;jettySize=auto;html=1;exitX=0;exitY=1;exitDx=0;exitDy=0;entryX=1;entryY=0;entryDx=0;entryDy=0;" edge="1" parent="1" source="eBgWkfiUlUs-1mOhxA75-3" target="eBgWkfiUlUs-1mOhxA75-4">
          <mxGeometry relative="1" as="geometry" />
        </mxCell>
        <mxCell id="eBgWkfiUlUs-1mOhxA75-3" value="b" style="ellipse;whiteSpace=wrap;html=1;aspect=fixed;" vertex="1" parent="1">
          <mxGeometry x="480" y="180" width="30" height="30" as="geometry" />
        </mxCell>
        <mxCell id="eBgWkfiUlUs-1mOhxA75-13" style="rounded=0;orthogonalLoop=1;jettySize=auto;html=1;entryX=0.638;entryY=0.983;entryDx=0;entryDy=0;exitX=0.635;exitY=0.019;exitDx=0;exitDy=0;exitPerimeter=0;entryPerimeter=0;" edge="1" parent="1" source="eBgWkfiUlUs-1mOhxA75-4" target="eBgWkfiUlUs-1mOhxA75-2">
          <mxGeometry relative="1" as="geometry">
            <mxPoint x="385" y="280" as="sourcePoint" />
            <mxPoint x="396" y="206" as="targetPoint" />
          </mxGeometry>
        </mxCell>
        <mxCell id="eBgWkfiUlUs-1mOhxA75-4" value="c" style="ellipse;whiteSpace=wrap;html=1;aspect=fixed;" vertex="1" parent="1">
          <mxGeometry x="370" y="280" width="30" height="30" as="geometry" />
        </mxCell>
        <mxCell id="eBgWkfiUlUs-1mOhxA75-5" value="d" style="ellipse;whiteSpace=wrap;html=1;aspect=fixed;" vertex="1" parent="1">
          <mxGeometry x="480" y="280" width="30" height="30" as="geometry" />
        </mxCell>
        <mxCell id="eBgWkfiUlUs-1mOhxA75-6" value="t" style="ellipse;whiteSpace=wrap;html=1;aspect=fixed;" vertex="1" parent="1">
          <mxGeometry x="560" y="230" width="30" height="30" as="geometry" />
        </mxCell>
        <mxCell id="eBgWkfiUlUs-1mOhxA75-8" style="rounded=0;orthogonalLoop=1;jettySize=auto;html=1;exitX=0;exitY=1;exitDx=0;exitDy=0;entryX=0.952;entryY=0.268;entryDx=0;entryDy=0;entryPerimeter=0;" edge="1" parent="1" source="eBgWkfiUlUs-1mOhxA75-2" target="eBgWkfiUlUs-1mOhxA75-1">
          <mxGeometry relative="1" as="geometry" />
        </mxCell>
        <mxCell id="eBgWkfiUlUs-1mOhxA75-9" value="16" style="text;html=1;align=center;verticalAlign=middle;resizable=0;points=[];autosize=1;strokeColor=none;fillColor=none;" vertex="1" parent="1">
          <mxGeometry x="330" y="198" width="40" height="30" as="geometry" />
        </mxCell>
        <mxCell id="eBgWkfiUlUs-1mOhxA75-14" value="6" style="text;html=1;align=center;verticalAlign=middle;resizable=0;points=[];autosize=1;strokeColor=none;fillColor=none;" vertex="1" parent="1">
          <mxGeometry x="355" y="228" width="30" height="30" as="geometry" />
        </mxCell>
        <mxCell id="eBgWkfiUlUs-1mOhxA75-15" value="8" style="text;html=1;align=center;verticalAlign=middle;resizable=0;points=[];autosize=1;strokeColor=none;fillColor=none;" vertex="1" parent="1">
          <mxGeometry x="385" y="230" width="30" height="30" as="geometry" />
        </mxCell>
        <mxCell id="eBgWkfiUlUs-1mOhxA75-18" style="rounded=0;orthogonalLoop=1;jettySize=auto;html=1;exitX=0.909;exitY=0.77;exitDx=0;exitDy=0;exitPerimeter=0;" edge="1" parent="1" source="eBgWkfiUlUs-1mOhxA75-1" target="eBgWkfiUlUs-1mOhxA75-4">
          <mxGeometry relative="1" as="geometry" />
        </mxCell>
        <mxCell id="eBgWkfiUlUs-1mOhxA75-19" style="rounded=0;orthogonalLoop=1;jettySize=auto;html=1;exitX=0;exitY=0.5;exitDx=0;exitDy=0;entryX=0.66;entryY=0.954;entryDx=0;entryDy=0;entryPerimeter=0;" edge="1" parent="1" source="eBgWkfiUlUs-1mOhxA75-4" target="eBgWkfiUlUs-1mOhxA75-1">
          <mxGeometry relative="1" as="geometry" />
        </mxCell>
        <mxCell id="eBgWkfiUlUs-1mOhxA75-20" value="6" style="text;html=1;align=center;verticalAlign=middle;resizable=0;points=[];autosize=1;strokeColor=none;fillColor=none;" vertex="1" parent="1">
          <mxGeometry x="335" y="248" width="30" height="30" as="geometry" />
        </mxCell>
        <mxCell id="eBgWkfiUlUs-1mOhxA75-21" value="7" style="text;html=1;align=center;verticalAlign=middle;resizable=0;points=[];autosize=1;strokeColor=none;fillColor=none;" vertex="1" parent="1">
          <mxGeometry x="325" y="268" width="30" height="30" as="geometry" />
        </mxCell>
        <mxCell id="eBgWkfiUlUs-1mOhxA75-22" style="rounded=0;orthogonalLoop=1;jettySize=auto;html=1;exitX=0;exitY=0.341;exitDx=0;exitDy=0;entryX=0.943;entryY=0.341;entryDx=0;entryDy=0;entryPerimeter=0;exitPerimeter=0;" edge="1" parent="1" source="eBgWkfiUlUs-1mOhxA75-5" target="eBgWkfiUlUs-1mOhxA75-4">
          <mxGeometry relative="1" as="geometry" />
        </mxCell>
        <mxCell id="eBgWkfiUlUs-1mOhxA75-23" style="rounded=0;orthogonalLoop=1;jettySize=auto;html=1;exitX=1.003;exitY=0.637;exitDx=0;exitDy=0;exitPerimeter=0;entryX=0.034;entryY=0.643;entryDx=0;entryDy=0;entryPerimeter=0;" edge="1" parent="1" source="eBgWkfiUlUs-1mOhxA75-4" target="eBgWkfiUlUs-1mOhxA75-5">
          <mxGeometry relative="1" as="geometry">
            <mxPoint x="480" y="300" as="targetPoint" />
          </mxGeometry>
        </mxCell>
        <mxCell id="eBgWkfiUlUs-1mOhxA75-24" value="11" style="text;html=1;align=center;verticalAlign=middle;resizable=0;points=[];autosize=1;strokeColor=none;fillColor=none;" vertex="1" parent="1">
          <mxGeometry x="420" y="268" width="40" height="30" as="geometry" />
        </mxCell>
        <mxCell id="eBgWkfiUlUs-1mOhxA75-25" value="3" style="text;html=1;align=center;verticalAlign=middle;resizable=0;points=[];autosize=1;strokeColor=none;fillColor=none;" vertex="1" parent="1">
          <mxGeometry x="425" y="298" width="30" height="30" as="geometry" />
        </mxCell>
        <mxCell id="eBgWkfiUlUs-1mOhxA75-27" value="7" style="text;html=1;align=center;verticalAlign=middle;resizable=0;points=[];autosize=1;strokeColor=none;fillColor=none;" vertex="1" parent="1">
          <mxGeometry x="485" y="218" width="30" height="30" as="geometry" />
        </mxCell>
        <mxCell id="eBgWkfiUlUs-1mOhxA75-29" value="12" style="text;html=1;align=center;verticalAlign=middle;resizable=0;points=[];autosize=1;strokeColor=none;fillColor=none;" vertex="1" parent="1">
          <mxGeometry x="420" y="168" width="40" height="30" as="geometry" />
        </mxCell>
        <mxCell id="eBgWkfiUlUs-1mOhxA75-30" style="rounded=0;orthogonalLoop=1;jettySize=auto;html=1;exitX=0;exitY=1;exitDx=0;exitDy=0;entryX=0.936;entryY=0.261;entryDx=0;entryDy=0;entryPerimeter=0;" edge="1" parent="1" source="eBgWkfiUlUs-1mOhxA75-6" target="eBgWkfiUlUs-1mOhxA75-5">
          <mxGeometry relative="1" as="geometry" />
        </mxCell>
        <mxCell id="eBgWkfiUlUs-1mOhxA75-31" value="4" style="text;html=1;align=center;verticalAlign=middle;resizable=0;points=[];autosize=1;strokeColor=none;fillColor=none;" vertex="1" parent="1">
          <mxGeometry x="535" y="258" width="30" height="30" as="geometry" />
        </mxCell>
        <mxCell id="eBgWkfiUlUs-1mOhxA75-32" style="rounded=0;orthogonalLoop=1;jettySize=auto;html=1;exitX=1;exitY=0.5;exitDx=0;exitDy=0;entryX=0.253;entryY=0.099;entryDx=0;entryDy=0;entryPerimeter=0;" edge="1" parent="1" source="eBgWkfiUlUs-1mOhxA75-3" target="eBgWkfiUlUs-1mOhxA75-6">
          <mxGeometry relative="1" as="geometry" />
        </mxCell>
        <mxCell id="eBgWkfiUlUs-1mOhxA75-33" style="rounded=0;orthogonalLoop=1;jettySize=auto;html=1;exitX=0.035;exitY=0.301;exitDx=0;exitDy=0;entryX=0.904;entryY=0.763;entryDx=0;entryDy=0;entryPerimeter=0;exitPerimeter=0;" edge="1" parent="1" source="eBgWkfiUlUs-1mOhxA75-6" target="eBgWkfiUlUs-1mOhxA75-3">
          <mxGeometry relative="1" as="geometry" />
        </mxCell>
        <mxCell id="eBgWkfiUlUs-1mOhxA75-34" value="1" style="text;html=1;align=center;verticalAlign=middle;resizable=0;points=[];autosize=1;strokeColor=none;fillColor=none;" vertex="1" parent="1">
          <mxGeometry x="525" y="188" width="30" height="30" as="geometry" />
        </mxCell>
        <mxCell id="eBgWkfiUlUs-1mOhxA75-35" value="19" style="text;html=1;align=center;verticalAlign=middle;resizable=0;points=[];autosize=1;strokeColor=none;fillColor=none;" vertex="1" parent="1">
          <mxGeometry x="515" y="218" width="40" height="30" as="geometry" />
        </mxCell>
        <mxCell id="eBgWkfiUlUs-1mOhxA75-37" value="9" style="text;html=1;align=center;verticalAlign=middle;resizable=0;points=[];autosize=1;strokeColor=none;fillColor=none;" vertex="1" parent="1">
          <mxGeometry x="425" y="218" width="30" height="30" as="geometry" />
        </mxCell>
      </root>
    </mxGraphModel>
  </diagram>
</mxfile>
